<?xml version="1.0" encoding="utf-8"?>
<!-- Generator: Adobe Illustrator 27.0.0, SVG Export Plug-In . SVG Version: 6.00 Build 0)  -->
<svg version="1.1" id="Layer_1" xmlns="http://www.w3.org/2000/svg" xmlns:xlink="http://www.w3.org/1999/xlink" x="0px" y="0px"
	 viewBox="0 0 207.47 54.78" style="enable-background:new 0 0 207.47 54.78;" xml:space="preserve">
<g>
	<path d="M21.72,39.15c-1.94,0-3.77-0.35-5.48-1.05c-1.71-0.7-3.2-1.68-4.45-2.94c-1.26-1.26-2.26-2.75-2.99-4.47
		c-0.74-1.72-1.11-3.6-1.11-5.62v-0.08c0-1.97,0.36-3.82,1.09-5.54c0.73-1.72,1.72-3.23,2.99-4.51c1.27-1.28,2.78-2.29,4.53-3.01
		c1.75-0.73,3.66-1.09,5.74-1.09c1.4,0,2.67,0.14,3.81,0.41c1.14,0.27,2.18,0.66,3.13,1.17c0.95,0.51,1.8,1.11,2.57,1.81
		c0.76,0.7,1.45,1.47,2.04,2.29l-5.68,4.4c-0.78-0.99-1.63-1.76-2.57-2.33c-0.93-0.57-2.06-0.86-3.38-0.86
		c-0.96,0-1.83,0.19-2.63,0.56c-0.79,0.38-1.47,0.89-2.04,1.54c-0.57,0.65-1.02,1.41-1.34,2.29c-0.32,0.88-0.49,1.81-0.49,2.8v0.08
		c0,1.01,0.16,1.96,0.49,2.86s0.77,1.67,1.34,2.31c0.57,0.65,1.25,1.16,2.04,1.54c0.79,0.38,1.67,0.56,2.63,0.56
		c0.7,0,1.34-0.08,1.93-0.23c0.58-0.16,1.11-0.38,1.59-0.68c0.48-0.3,0.93-0.65,1.36-1.05c0.43-0.4,0.85-0.85,1.26-1.34L33.77,33
		c-0.65,0.88-1.36,1.7-2.12,2.45c-0.77,0.75-1.63,1.4-2.61,1.94c-0.97,0.54-2.06,0.97-3.27,1.28
		C24.57,38.99,23.22,39.15,21.72,39.15z"/>
	<path d="M37,11.38h7.54v10.19h9.68V11.38h7.55V38.6h-7.55V28.26h-9.68V38.6H37V11.38z"/>
	<path d="M76.01,11.18h7.27L94.87,38.6h-8.09l-1.98-4.86H74.3l-1.94,4.86h-7.93L76.01,11.18z M82.62,27.91l-3.03-7.74l-3.07,7.74
		H82.62z"/>
	<path d="M97.52,11.38h12.87c2.1,0,3.88,0.26,5.33,0.78c1.45,0.52,2.63,1.24,3.54,2.18c1.61,1.56,2.41,3.67,2.41,6.34v0.08
		c0,2.1-0.51,3.84-1.52,5.21c-1.01,1.37-2.37,2.42-4.08,3.15l6.5,9.49h-8.71l-5.48-8.25h-0.08h-3.23v8.25h-7.54V11.38z
		 M110.04,24.45c1.3,0,2.29-0.29,2.99-0.88c0.7-0.58,1.05-1.37,1.05-2.35v-0.08c0-1.09-0.36-1.9-1.09-2.43
		c-0.73-0.53-1.72-0.8-3-0.8h-4.94v6.53H110.04z"/>
	<path d="M125.48,11.38h7.54v11.05l9.37-11.05h8.95l-10.31,11.71L151.7,38.6h-9.06l-6.85-10.11l-2.76,3.07v7.04h-7.54V11.38z"/>
	<path d="M153.87,11.38h21.86v6.42H161.3v4.12h13.07v5.95H161.3v4.32h14.62v6.42h-22.05V11.38z"/>
	<path d="M186.47,17.99h-8.17v-6.61h23.88v6.61h-8.17V38.6h-7.55V17.99z"/>
</g>
</svg>
